# xmcd
#
# Track frame offsets: 
#        150
#        10937
#        24732
#        36492
#        46630
#        56722
#        65577
#        80747
#        92077
#        102272
#
# Disc length: 1535 seconds
#
# Revision: 1
# Processed by: cddbd v1.4PL0 Copyright (c) Steve Scherf et al.
# Submitted via: ExactAudioCopy v0.90b3
#
DISCID=8105fd0a
DTITLE=Porter Wagoner and Dolly Parton - Country Kicks
DYEAR=1900
DGENRE=Country
TTITLE0=Just Someone I Used To Know
TTITLE1=Daddy Was An Old Time Preacher Man
TTITLE2=The Last Thing On My Mind
TTITLE3=Better Move It On Home
TTITLE4=Together Always
TTITLE5=We'll Ge Ahead Someday
TTITLE6=Lost Forever In Your Kiss
TTITLE7=We Found It
TTITLE8=I Am Always Waiting
TTITLE9=Sweet Rachel Ann
EXTD=
EXTT0=
EXTT1=
EXTT2=
EXTT3=
EXTT4=
EXTT5=
EXTT6=
EXTT7=
EXTT8=
EXTT9=
PLAYORDER=
